<svg width="12" height="12" viewBox="0 0 12 12" fill="none" xmlns="http://www.w3.org/2000/svg">
<path fill-rule="evenodd" clip-rule="evenodd" d="M6.51092 0.65516C6.67289 0.722277 6.82006 0.820651 6.944 0.94466L11.056 5.05599C11.1801 5.17995 11.2786 5.32716 11.3457 5.48919C11.4129 5.65123 11.4475 5.82492 11.4475 6.00033C11.4475 6.17574 11.4129 6.34943 11.3457 6.51146C11.2786 6.6735 11.1801 6.8207 11.056 6.94466L6.944 11.056C6.82006 11.18 6.67289 11.2784 6.51092 11.3455C6.34894 11.4126 6.17533 11.4472 6 11.4472C5.82467 11.4472 5.65106 11.4126 5.48908 11.3455C5.32711 11.2784 5.17994 11.18 5.056 11.056L0.944 6.94466C0.819891 6.8207 0.721433 6.6735 0.654257 6.51146C0.58708 6.34943 0.552504 6.17574 0.552504 6.00033C0.552504 5.82492 0.58708 5.65123 0.654257 5.48919C0.721433 5.32716 0.819891 5.17995 0.944 5.05599L5.056 0.94466C5.17994 0.820651 5.32711 0.722277 5.48908 0.65516C5.65106 0.588043 5.82467 0.553497 6 0.553497C6.17533 0.553497 6.34894 0.588043 6.51092 0.65516ZM5.52859 7.13806C5.65362 7.26308 5.82319 7.33332 6 7.33332C6.17681 7.33332 6.34638 7.26308 6.4714 7.13806C6.59643 7.01304 6.66666 6.84347 6.66666 6.66666V3.33332C6.66666 3.15651 6.59643 2.98694 6.4714 2.86192C6.34638 2.73689 6.17681 2.66666 6 2.66666C5.82319 2.66666 5.65362 2.73689 5.52859 2.86192C5.40357 2.98694 5.33333 3.15651 5.33333 3.33332V6.66666C5.33333 6.84347 5.40357 7.01304 5.52859 7.13806ZM5.52859 9.13806C5.65362 9.26309 5.82319 9.33332 6 9.33332C6.17681 9.33332 6.34638 9.26309 6.4714 9.13806C6.59643 9.01304 6.66666 8.84347 6.66666 8.66666C6.66666 8.48984 6.59643 8.32028 6.4714 8.19525C6.34638 8.07023 6.17681 7.99999 6 7.99999C5.82319 7.99999 5.65362 8.07023 5.52859 8.19525C5.40357 8.32028 5.33333 8.48984 5.33333 8.66666C5.33333 8.84347 5.40357 9.01304 5.52859 9.13806Z" fill="#DE350B"/>
</svg>
