<svg width="12" height="12" viewBox="0 0 12 12" fill="none" xmlns="http://www.w3.org/2000/svg">
<path fill-rule="evenodd" clip-rule="evenodd" d="M5.99999 11.3333C4.5855 11.3333 3.22895 10.7714 2.22875 9.77124C1.22856 8.77105 0.666656 7.41449 0.666656 6C0.666656 4.58552 1.22856 3.22896 2.22875 2.22877C3.22895 1.22857 4.5855 0.666672 5.99999 0.666672C7.41448 0.666672 8.77103 1.22857 9.77123 2.22877C10.7714 3.22896 11.3333 4.58552 11.3333 6C11.3333 7.41449 10.7714 8.77105 9.77123 9.77124C8.77103 10.7714 7.41448 11.3333 5.99999 11.3333ZM6.90932 4.024L5.47466 6.764L4.44599 5.83734C4.3809 5.77877 4.30491 5.73359 4.22236 5.70439C4.13981 5.67519 4.05231 5.66253 3.96487 5.66715C3.87743 5.67176 3.79175 5.69355 3.71273 5.73127C3.63371 5.76899 3.56289 5.82191 3.50432 5.887C3.44575 5.9521 3.40058 6.02809 3.37138 6.11064C3.34217 6.19319 3.32952 6.28068 3.33413 6.36812C3.33874 6.45557 3.36053 6.54124 3.39826 6.62026C3.43598 6.69929 3.4889 6.7701 3.55399 6.82867L5.22066 8.32867C5.29617 8.39668 5.38624 8.44652 5.48396 8.47439C5.58169 8.50226 5.6845 8.50742 5.78453 8.48947C5.88455 8.47153 5.97916 8.43095 6.0611 8.37084C6.14304 8.31074 6.21016 8.23269 6.25732 8.14267L8.09066 4.64267C8.1727 4.48602 8.18915 4.30319 8.13639 4.13441C8.08363 3.96562 7.96598 3.82471 7.80932 3.74267C7.65267 3.66063 7.46984 3.64418 7.30106 3.69694C7.13227 3.7497 6.99136 3.86735 6.90932 4.024Z" fill="#00875A"/>
</svg>
