<svg width="14" height="14" viewBox="0 0 14 14" fill="none" xmlns="http://www.w3.org/2000/svg">
<path fill-rule="evenodd" clip-rule="evenodd" d="M6.66667 13.3333C2.98467 13.3333 0 10.3487 0 6.66667C0 2.98467 2.98467 0 6.66667 0C10.3487 0 13.3333 2.98467 13.3333 6.66667C13.3333 10.3487 10.3487 13.3333 6.66667 13.3333ZM7.33333 4C7.33333 4.36819 7.03486 4.66667 6.66667 4.66667C6.29848 4.66667 6 4.36819 6 4C6 3.63181 6.29848 3.33333 6.66667 3.33333C7.03486 3.33333 7.33333 3.63181 7.33333 4ZM6.66667 5.33333C7.03486 5.33333 7.33333 5.63181 7.33333 6V9.33333C7.33333 9.70152 7.03486 10 6.66667 10C6.29848 10 6 9.70152 6 9.33333V6C6 5.63181 6.29848 5.33333 6.66667 5.33333Z" fill="#6554C0"/>
</svg>
