<svg width="141" height="42" viewBox="0 0 141 42" fill="none" xmlns="http://www.w3.org/2000/svg">
<g clip-path="url(#clip0_212_13726)">
<g clip-path="url(#clip1_212_13726)">
<path d="M15.5543 18.0876C12.4623 17.6789 10.2909 17.4745 9.04328 17.4745C7.79571 17.4745 6.97635 17.5903 6.59196 17.8185C6.20757 18.0468 5.99177 18.4112 5.94794 18.9086C5.90411 19.4059 6.1199 19.7499 6.59533 19.9407C7.07076 20.1314 8.30822 20.4141 10.3077 20.782C12.3072 21.1533 13.6964 21.7562 14.4821 22.5976C15.2677 23.439 15.5779 24.8015 15.4161 26.6886C15.0586 30.8171 12.3443 32.8813 7.27644 32.8813C5.61076 32.8813 3.61126 32.6531 1.28132 32.1932L0.0910645 31.965L0.613699 27.6832C3.70567 28.092 5.86365 28.293 7.08762 28.293C8.3116 28.293 9.15456 28.1738 9.6165 27.9285C10.0784 27.6867 10.3313 27.3256 10.3718 26.8385C10.4156 26.3548 10.2099 25.9971 9.76486 25.7689C9.31977 25.5407 8.13289 25.2579 6.20757 24.9275C4.28225 24.5971 2.87283 24.0385 1.98266 23.2448C1.0925 22.4545 0.735085 21.0477 0.91042 19.021C1.08576 16.9942 1.89837 15.4682 3.35163 14.436C4.80489 13.4039 6.60208 12.8862 8.74656 12.8862C10.2335 12.8862 12.2432 13.128 14.7754 13.6117L16.0028 13.8399L15.561 18.0842L15.5543 18.0876Z" fill="#243561"/>
<path d="M19.786 15.4682C21.2729 13.7241 23.5826 12.8487 26.7083 12.8487C29.834 12.8487 31.992 13.7207 33.1789 15.4682C34.3624 17.2156 34.821 19.6682 34.5478 22.8258C33.9679 29.5261 30.7781 32.8779 24.9752 32.8779C19.1723 32.8779 16.5625 29.5261 17.1424 22.8258C17.4156 19.6648 18.2956 17.2122 19.786 15.4682ZM22.6891 27.145C23.1274 28.0613 24.0142 28.5212 25.3529 28.5212C26.6915 28.5212 27.6558 28.0613 28.2526 27.145C28.8494 26.2287 29.2338 24.7879 29.4024 22.8258C29.571 20.8638 29.4361 19.4365 28.9978 18.5441C28.5595 17.6516 27.6693 17.2054 26.3341 17.2054C24.9988 17.2054 24.0311 17.6516 23.4377 18.5441C22.8442 19.4365 22.4598 20.8638 22.2912 22.8258C22.1226 24.7879 22.2541 26.2287 22.6925 27.145H22.6891Z" fill="#243561"/>
<path d="M51.8858 19.273L51.1979 27.2234C51.1979 27.8331 51.2586 28.2623 51.3901 28.5042C51.5216 28.746 51.8217 28.9197 52.2938 29.0185L51.8082 32.8779C50.5202 32.8779 49.5019 32.7893 48.7466 32.6088C47.9913 32.4283 47.2461 32.074 46.5111 31.5392C44.6161 32.4317 42.7245 32.8779 40.8329 32.8779C36.9216 32.8779 35.148 30.7898 35.5122 26.6103C35.6875 24.5733 36.3551 23.1256 37.515 22.2706C38.6716 21.4156 40.3811 20.9115 42.6402 20.7616L46.7134 20.455L46.8146 19.2696C46.882 18.4794 46.7539 17.9377 46.4268 17.6448C46.0997 17.3519 45.5434 17.2054 44.7611 17.2054L37.6229 17.512L37.778 13.9557C40.5396 13.2166 43.1393 12.8487 45.5737 12.8487C48.0082 12.8487 49.7143 13.3596 50.7023 14.3781C51.6835 15.3966 52.0814 17.0283 51.8858 19.2696V19.273ZM42.9369 24.3178C41.514 24.4438 40.7419 25.2103 40.6205 26.6103C40.4991 28.0103 41.0555 28.712 42.2929 28.712C43.2505 28.712 44.3127 28.5587 45.4726 28.2555L46.0525 28.1022L46.4066 24.0112L42.9369 24.3178Z" fill="#243561"/>
<path d="M54.2259 32.4215L55.8815 13.3086H60.9156L60.7403 15.3353C62.9691 14.0614 65.0596 13.2336 67.0085 12.8521L66.5601 18.0127C64.4796 18.4453 62.6892 18.8915 61.1854 19.3514L60.4065 19.6171L59.2971 32.4215H54.2259Z" fill="#243561"/>
<path d="M67.0355 32.4214L69.3519 5.66473H74.4198L72.1033 32.4214H67.0355Z" fill="#243561"/>
<path d="M75.401 32.4214L77.0566 13.3085H82.1278L80.4722 32.4214H75.401ZM77.269 10.8628L77.7175 5.66473H82.7887L82.3402 10.8628H77.269Z" fill="#243561"/>
<path d="M88.7568 32.4214H83.6855L85.3411 13.3085H90.3753L90.2842 14.3781C92.0882 13.3596 93.7066 12.8487 95.1464 12.8487C97.6685 12.8487 99.3443 13.6015 100.174 15.1037C101.003 16.6093 101.28 18.9256 101.01 22.0594L100.113 32.418H95.0419L95.9253 22.2127C96.0669 20.5811 95.9826 19.3786 95.6724 18.602C95.3588 17.8253 94.6373 17.437 93.501 17.437C92.4658 17.437 91.4542 17.6141 90.4663 17.9718L89.9976 18.1251L88.7602 32.4214H88.7568Z" fill="#243561"/>
<path d="M108.853 27.5845C109.399 28.1056 110.229 28.3679 111.338 28.3679C113.685 28.3679 115.785 28.2896 117.64 28.1397L118.709 28.0239L118.456 31.8083C115.492 32.5202 112.838 32.8779 110.495 32.8779C107.646 32.8779 105.643 32.1115 104.49 30.5854C103.337 29.056 102.908 26.5728 103.205 23.1324C103.799 16.2789 106.88 12.8487 112.457 12.8487C118.034 12.8487 120.455 15.7304 119.956 21.4871L119.272 25.0399H108.148C108.071 26.2117 108.307 27.0599 108.856 27.5811L108.853 27.5845ZM114.99 21.1431C115.121 19.6137 114.973 18.5509 114.548 17.9514C114.12 17.3519 113.307 17.0521 112.11 17.0521C110.913 17.0521 110.04 17.3655 109.494 17.9888C108.947 18.6122 108.597 19.6648 108.445 21.1431H114.99Z" fill="#243561"/>
<path d="M138.232 0L125.86 12.2355L133.161 9.55474L132.597 16.5854L136.526 10.3995L141 16.0336L138.232 0Z" fill="#0762FB"/>
<path d="M0 42H105.508C125.769 42 132.011 19.1095 132.011 19.1095C132.011 19.1095 125.769 38.8151 104.864 38.8151H0V42Z" fill="#0762FB"/>
</g>
</g>
<defs>
<clipPath id="clip0_212_13726">
<rect width="141" height="42" fill="white"/>
</clipPath>
<clipPath id="clip1_212_13726">
<rect width="141" height="42" fill="white"/>
</clipPath>
</defs>
</svg>
